<svg xmlns="http://www.w3.org/2000/svg" viewBox="0 0 1320 935" width="1320" height="935" font-family="'Segoe UI', system-ui, -apple-system, sans-serif">
<defs><marker id="ah" viewBox="0 0 10 10" refX="8.6" refY="5" markerWidth="8.5" markerHeight="8.5" markerUnits="userSpaceOnUse" orient="auto"><path d="M0,0 L10,5 L0,10 z" fill="#566171"/></marker></defs>
<rect x="0" y="0" width="1320" height="935" fill="#FAFBFC"/>
<text x="660" y="42" text-anchor="middle" font-size="17" font-weight="600" fill="#111827">T2·A — Emisión/actualización de ordenamientos organizacionales (RI · estructura · MGO)</text>
<rect x="27" y="62" width="206" height="843" rx="10" fill="#F7F8FA" stroke="#DCE0E6"/>
<text x="130" y="84" text-anchor="middle" font-size="12" font-weight="600" fill="#374151">R27·R21</text>
<text x="130" y="100" text-anchor="middle" font-size="10" fill="#6B7280">Unidades / UIPPE</text>
<rect x="239" y="62" width="206" height="843" rx="10" fill="#F7F8FA" stroke="#DCE0E6"/>
<text x="342" y="84" text-anchor="middle" font-size="12" font-weight="600" fill="#374151">R20</text>
<text x="342" y="100" text-anchor="middle" font-size="10" fill="#6B7280">UJIGEV</text>
<rect x="451" y="62" width="206" height="843" rx="10" fill="#F7F8FA" stroke="#DCE0E6"/>
<text x="554" y="84" text-anchor="middle" font-size="12" font-weight="600" fill="#374151">R19</text>
<text x="554" y="100" text-anchor="middle" font-size="10" fill="#6B7280">Dirección General</text>
<rect x="663" y="62" width="206" height="843" rx="10" fill="#F7F8FA" stroke="#DCE0E6"/>
<text x="766" y="84" text-anchor="middle" font-size="12" font-weight="600" fill="#374151">R18</text>
<text x="766" y="100" text-anchor="middle" font-size="10" fill="#6B7280">Consejo Directivo</text>
<rect x="875" y="62" width="206" height="843" rx="10" fill="#F7F8FA" stroke="#DCE0E6"/>
<text x="978" y="84" text-anchor="middle" font-size="12" font-weight="600" fill="#374151">R24</text>
<text x="978" y="100" text-anchor="middle" font-size="10" fill="#6B7280">Oficialía Mayor (DGI)</text>
<rect x="1087" y="62" width="206" height="843" rx="10" fill="#F7F8FA" stroke="#DCE0E6"/>
<text x="1190" y="84" text-anchor="middle" font-size="12" font-weight="600" fill="#374151">PO·R26</text>
<text x="1190" y="100" text-anchor="middle" font-size="10" fill="#6B7280">Gaceta / sitio</text>
<polyline points="130,116 130,132" fill="none" stroke="#566171" stroke-width="1.4" stroke-linejoin="round" marker-end="url(#ah)"/>
<polyline points="130,184 130,216.5" fill="none" stroke="#566171" stroke-width="1.4" stroke-linejoin="round" marker-end="url(#ah)"/>
<polyline points="130,253.5 130,271.5 342,271.5 342,289.5" fill="none" stroke="#566171" stroke-width="1.4" stroke-linejoin="round" marker-end="url(#ah)"/>
<polyline points="342,326.5 342,345 554,345 554,363.5" fill="none" stroke="#566171" stroke-width="1.4" stroke-linejoin="round" marker-end="url(#ah)"/>
<polyline points="554,400.5 554,415.25 766,415.25 766,430" fill="none" stroke="#566171" stroke-width="1.4" stroke-linejoin="round" marker-end="url(#ah)"/>
<polyline points="766,482 766,493 978,493 978,504" fill="none" stroke="#566171" stroke-width="1.4" stroke-linejoin="round" marker-end="url(#ah)"/>
<polyline points="978,556 978,578" fill="none" stroke="#566171" stroke-width="1.4" stroke-linejoin="round" marker-end="url(#ah)"/>
<polyline points="978,630 978,640 1190,640 1190,650" fill="none" stroke="#566171" stroke-width="1.4" stroke-linejoin="round" marker-end="url(#ah)"/>
<polyline points="1190,702 1190,713 342,713 342,716.5" fill="none" stroke="#566171" stroke-width="1.4" stroke-linejoin="round" marker-end="url(#ah)"/>
<polyline points="342,783.5 342,786 1190,786 1190,796" fill="none" stroke="#566171" stroke-width="1.4" stroke-linejoin="round" marker-end="url(#ah)"/>
<polyline points="1190,848 1190,870" fill="none" stroke="#566171" stroke-width="1.4" stroke-linejoin="round" marker-end="url(#ah)"/>
<circle cx="130" cy="108" r="7" fill="#374151"/>
<rect x="37" y="132" width="186" height="52" rx="9" fill="#E8F0FE" stroke="#93B4E0" stroke-width="1.2"/>
<text x="130" y="154.5" text-anchor="middle" font-size="11.5" fill="#1F2937"><tspan font-weight="600" fill="#1D4ED8">A1</tspan><tspan fill="#1F2937"> · Detecta la necesidad</tspan></text>
<text x="130" y="169.5" text-anchor="middle" font-size="11.5" fill="#1F2937">(reforma legal, vencimiento)</text>
<rect x="39" y="216.5" width="182" height="37" rx="9" fill="#E8F0FE" stroke="#93B4E0" stroke-width="1.2"/>
<text x="130" y="239" text-anchor="middle" font-size="11.5" fill="#1F2937"><tspan font-weight="600" fill="#1D4ED8">A2</tspan><tspan fill="#1F2937"> · Elabora el proyecto</tspan></text>
<rect x="257.5" y="289.5" width="169" height="37" rx="9" fill="#E8F0FE" stroke="#93B4E0" stroke-width="1.2"/>
<text x="342" y="312" text-anchor="middle" font-size="11.5" fill="#1F2937"><tspan font-weight="600" fill="#1D4ED8">A3</tspan><tspan fill="#1F2937"> · Revisión jurídica</tspan></text>
<rect x="463" y="363.5" width="182" height="37" rx="9" fill="#E8F0FE" stroke="#93B4E0" stroke-width="1.2"/>
<text x="554" y="386" text-anchor="middle" font-size="11.5" fill="#1F2937"><tspan font-weight="600" fill="#1D4ED8">A4</tspan><tspan fill="#1F2937"> · Presenta al Consejo</tspan></text>
<rect x="675" y="430" width="182" height="52" rx="9" fill="#E8F0FE" stroke="#93B4E0" stroke-width="1.2"/>
<text x="766" y="452.5" text-anchor="middle" font-size="11.5" fill="#1F2937"><tspan font-weight="600" fill="#1D4ED8">A5</tspan><tspan fill="#1F2937"> · Aprueba con acuerdo</tspan></text>
<text x="766" y="467.5" text-anchor="middle" font-size="11.5" fill="#1F2937">numerado (sesión)</text>
<rect x="885" y="504" width="186" height="52" rx="9" fill="#E8F0FE" stroke="#93B4E0" stroke-width="1.2"/>
<text x="978" y="526.5" text-anchor="middle" font-size="11.5" fill="#1F2937"><tspan font-weight="600" fill="#1D4ED8">A6</tspan><tspan fill="#1F2937"> · Remisión para revisión,</tspan></text>
<text x="978" y="541.5" text-anchor="middle" font-size="11.5" fill="#1F2937">dictamen y aprobación</text>
<rect x="885" y="578" width="186" height="52" rx="9" fill="#E8F0FE" stroke="#93B4E0" stroke-width="1.2"/>
<text x="978" y="600.5" text-anchor="middle" font-size="11.5" fill="#1F2937"><tspan font-weight="600" fill="#1D4ED8">A7</tspan><tspan fill="#1F2937"> · Oficio de dictaminación</tspan></text>
<text x="978" y="615.5" text-anchor="middle" font-size="11.5" fill="#1F2937">de la DGI</text>
<rect x="1105.5" y="650" width="169" height="52" rx="9" fill="#E8F0FE" stroke="#93B4E0" stroke-width="1.2"/>
<text x="1190" y="672.5" text-anchor="middle" font-size="11.5" fill="#1F2937"><tspan font-weight="600" fill="#1D4ED8">A8</tspan><tspan fill="#1F2937"> · Publica la Gaceta</tspan></text>
<text x="1190" y="687.5" text-anchor="middle" font-size="11.5" fill="#1F2937">→ entra en vigor</text>
<rect x="249" y="716.5" width="186" height="67" rx="9" fill="#E8F0FE" stroke="#93B4E0" stroke-width="1.2"/>
<text x="342" y="739" text-anchor="middle" font-size="11.5" fill="#1F2937"><tspan font-weight="600" fill="#1D4ED8">A9</tspan><tspan fill="#1F2937"> · Hoja de actualización</tspan></text>
<text x="342" y="754" text-anchor="middle" font-size="11.5" fill="#1F2937">(deja sin efectos el previo)</text>
<text x="342" y="769" text-anchor="middle" font-size="11.5" fill="#1F2937">+ difusión interna</text>
<rect x="1097" y="796" width="186" height="52" rx="9" fill="#E8F0FE" stroke="#93B4E0" stroke-width="1.2"/>
<text x="1190" y="818.5" text-anchor="middle" font-size="11.5" fill="#1F2937"><tspan font-weight="600" fill="#1D4ED8">A10</tspan><tspan fill="#1F2937"> · Integra a la Normateca</tspan></text>
<text x="1190" y="833.5" text-anchor="middle" font-size="11.5" fill="#1F2937">del sitio oficial</text>
<circle cx="1190" cy="878" r="8" fill="#374151"/><circle cx="1190" cy="878" r="3.4" fill="#FAFBFC"/>
</svg>
