<svg xmlns="http://www.w3.org/2000/svg" viewBox="0 0 1176 1040" width="1176" height="1040" font-family="'Segoe UI', system-ui, -apple-system, sans-serif">
<defs><marker id="ah" viewBox="0 0 10 10" refX="8.6" refY="5" markerWidth="8.5" markerHeight="8.5" markerUnits="userSpaceOnUse" orient="auto"><path d="M0,0 L10,5 L0,10 z" fill="#566171"/></marker></defs>
<rect x="0" y="0" width="1176" height="1040" fill="#FAFBFC"/>
<text x="588" y="42" text-anchor="middle" font-size="17" font-weight="600" fill="#111827">G6·A — Almacenamiento del Banco de Germoplasma</text>
<rect x="27" y="62" width="182" height="948" rx="10" fill="#F7F8FA" stroke="#DCE0E6"/>
<text x="118" y="84" text-anchor="middle" font-size="12" font-weight="600" fill="#374151">R1</text>
<text x="118" y="100" text-anchor="middle" font-size="10" fill="#6B7280">Resp. Colecta</text>
<rect x="215" y="62" width="182" height="948" rx="10" fill="#F7F8FA" stroke="#DCE0E6"/>
<text x="306" y="84" text-anchor="middle" font-size="12" font-weight="600" fill="#374151">R2</text>
<text x="306" y="100" text-anchor="middle" font-size="10" fill="#6B7280">Banco de Germoplasma</text>
<rect x="403" y="62" width="182" height="948" rx="10" fill="#F7F8FA" stroke="#DCE0E6"/>
<text x="494" y="84" text-anchor="middle" font-size="12" font-weight="600" fill="#374151">R3</text>
<text x="494" y="100" text-anchor="middle" font-size="10" fill="#6B7280">Depto. Prod. Planta</text>
<rect x="591" y="62" width="182" height="948" rx="10" fill="#F7F8FA" stroke="#DCE0E6"/>
<text x="682" y="84" text-anchor="middle" font-size="12" font-weight="600" fill="#374151">R4</text>
<text x="682" y="100" text-anchor="middle" font-size="10" fill="#6B7280">UCSF</text>
<rect x="779" y="62" width="182" height="948" rx="10" fill="#F7F8FA" stroke="#DCE0E6"/>
<text x="870" y="84" text-anchor="middle" font-size="12" font-weight="600" fill="#374151">R5</text>
<text x="870" y="100" text-anchor="middle" font-size="10" fill="#6B7280">DRFF</text>
<rect x="967" y="62" width="182" height="948" rx="10" fill="#F7F8FA" stroke="#DCE0E6"/>
<text x="1058" y="84" text-anchor="middle" font-size="12" font-weight="600" fill="#374151">R6</text>
<text x="1058" y="100" text-anchor="middle" font-size="10" fill="#6B7280">DRF/Vivero</text>
<polyline points="118,116 118,136" fill="none" stroke="#566171" stroke-width="1.4" stroke-linejoin="round" marker-end="url(#ah)"/>
<polyline points="118,188 118,204 306,204 306,224" fill="none" stroke="#566171" stroke-width="1.4" stroke-linejoin="round" marker-end="url(#ah)"/>
<polyline points="306,276 306,295 118,295 118,314" fill="none" stroke="#566171" stroke-width="1.4" stroke-linejoin="round" marker-end="url(#ah)"/>
<polyline points="118,366 118,385 494,385 494,404" fill="none" stroke="#566171" stroke-width="1.4" stroke-linejoin="round" marker-end="url(#ah)"/>
<polyline points="494,456 494,476 682,476 682,494" fill="none" stroke="#566171" stroke-width="1.4" stroke-linejoin="round" marker-end="url(#ah)"/>
<polyline points="682,546 682,566 870,566 870,584" fill="none" stroke="#566171" stroke-width="1.4" stroke-linejoin="round" marker-end="url(#ah)"/>
<polyline points="870,636 870,662 306,662 306,678.5" fill="none" stroke="#566171" stroke-width="1.4" stroke-linejoin="round" marker-end="url(#ah)"/>
<polyline points="306,745.5 306,781.5" fill="none" stroke="#566171" stroke-width="1.4" stroke-linejoin="round" marker-end="url(#ah)"/>
<polyline points="400,815 1058,815 1058,884" fill="none" stroke="#566171" stroke-width="1.4" stroke-linejoin="round" marker-end="url(#ah)"/>
<polyline points="1058,936 1058,962" fill="none" stroke="#566171" stroke-width="1.4" stroke-linejoin="round" marker-end="url(#ah)"/>
<circle cx="118" cy="108" r="7" fill="#374151"/>
<rect x="24" y="136" width="188" height="52" rx="9" fill="#E8F0FE" stroke="#93B4E0" stroke-width="1.2"/>
<text x="118" y="158.5" text-anchor="middle" font-size="11.5" fill="#1F2937"><tspan font-weight="600" fill="#1D4ED8">G6·A1</tspan><tspan fill="#1F2937"> · Recibe semilla limpia</tspan></text>
<text x="118" y="173.5" text-anchor="middle" font-size="11.5" fill="#1F2937">de G5 y prepara resguardo</text>
<rect x="212" y="224" width="188" height="52" rx="9" fill="#E8F0FE" stroke="#93B4E0" stroke-width="1.2"/>
<text x="306" y="246.5" text-anchor="middle" font-size="11.5" fill="#1F2937"><tspan font-weight="600" fill="#1D4ED8">G6·A2</tspan><tspan fill="#1F2937"> · Almacena semilla a</tspan></text>
<text x="306" y="261.5" text-anchor="middle" font-size="11.5" fill="#1F2937">temperatura adecuada</text>
<rect x="24" y="314" width="188" height="52" rx="9" fill="#E8F0FE" stroke="#93B4E0" stroke-width="1.2"/>
<text x="118" y="336.5" text-anchor="middle" font-size="11.5" fill="#1F2937"><tspan font-weight="600" fill="#1D4ED8">G6·A3</tspan><tspan fill="#1F2937"> · Reporta inventario</tspan></text>
<text x="118" y="351.5" text-anchor="middle" font-size="11.5" fill="#1F2937">de semillas + informe final</text>
<rect x="400" y="404" width="188" height="52" rx="9" fill="#E8F0FE" stroke="#93B4E0" stroke-width="1.2"/>
<text x="494" y="426.5" text-anchor="middle" font-size="11.5" fill="#1F2937"><tspan font-weight="600" fill="#1D4ED8">G6·A4</tspan><tspan fill="#1F2937"> · Recibe inventario,</tspan></text>
<text x="494" y="441.5" text-anchor="middle" font-size="11.5" fill="#1F2937">firma y turna a UCSF</text>
<rect x="594.25" y="494" width="175.5" height="52" rx="9" fill="#E8F0FE" stroke="#93B4E0" stroke-width="1.2"/>
<text x="682" y="516.5" text-anchor="middle" font-size="11.5" fill="#1F2937"><tspan font-weight="600" fill="#1D4ED8">G6·A5</tspan><tspan fill="#1F2937"> · Revisa, firma y</tspan></text>
<text x="682" y="531.5" text-anchor="middle" font-size="11.5" fill="#1F2937">turna inventario a DRFF</text>
<rect x="779" y="584" width="182" height="52" rx="9" fill="#E8F0FE" stroke="#93B4E0" stroke-width="1.2"/>
<text x="870" y="606.5" text-anchor="middle" font-size="11.5" fill="#1F2937"><tspan font-weight="600" fill="#1D4ED8">G6·A6</tspan><tspan fill="#1F2937"> · Da visto bueno y</tspan></text>
<text x="870" y="621.5" text-anchor="middle" font-size="11.5" fill="#1F2937">regresa a Depto.</text>
<rect x="212" y="678.5" width="188" height="67" rx="9" fill="#E8F0FE" stroke="#93B4E0" stroke-width="1.2"/>
<text x="306" y="701" text-anchor="middle" font-size="11.5" fill="#1F2937"><tspan font-weight="600" fill="#1D4ED8">G6·A7</tspan><tspan fill="#1F2937"> · Entrega semilla con</tspan></text>
<text x="306" y="716" text-anchor="middle" font-size="11.5" fill="#1F2937">vale foliado y bitácora</text>
<text x="306" y="731" text-anchor="middle" font-size="11.5" fill="#1F2937">(enlace con G8)</text>
<rect x="212" y="781.5" width="188" height="67" rx="9" fill="#E8F0FE" stroke="#93B4E0" stroke-width="1.2"/>
<text x="306" y="804" text-anchor="middle" font-size="11.5" fill="#1F2937"><tspan font-weight="600" fill="#1D4ED8">G6·A8</tspan><tspan fill="#1F2937"> · Si no se siembra,</tspan></text>
<text x="306" y="819" text-anchor="middle" font-size="11.5" fill="#1F2937">recibe retorno antes de</text>
<text x="306" y="834" text-anchor="middle" font-size="11.5" fill="#1F2937">fecha límite (enlace G10)</text>
<rect x="964" y="884" width="188" height="52" rx="9" fill="#E8F0FE" stroke="#93B4E0" stroke-width="1.2"/>
<text x="1058" y="906.5" text-anchor="middle" font-size="11.5" fill="#1F2937"><tspan font-weight="600" fill="#1D4ED8">G6·A9</tspan><tspan fill="#1F2937"> · Recibe semilla para</tspan></text>
<text x="1058" y="921.5" text-anchor="middle" font-size="11.5" fill="#1F2937">siembra en vivero</text>
<circle cx="1058" cy="970" r="8" fill="#374151"/><circle cx="1058" cy="970" r="3.4" fill="#FAFBFC"/>
<text x="494" y="998" text-anchor="middle" font-size="10.5" font-style="italic" fill="#6B7280">retorno documentado; flujo operativo por confirmar en campo</text>
</svg>
