<svg xmlns="http://www.w3.org/2000/svg" viewBox="0 0 1128 750" width="1128" height="750" font-family="'Segoe UI', system-ui, -apple-system, sans-serif">
<defs><marker id="ah" viewBox="0 0 10 10" refX="8.6" refY="5" markerWidth="8.5" markerHeight="8.5" markerUnits="userSpaceOnUse" orient="auto"><path d="M0,0 L10,5 L0,10 z" fill="#566171"/></marker></defs>
<rect x="0" y="0" width="1128" height="750" fill="#FAFBFC"/>
<text x="564" y="42" text-anchor="middle" font-size="17" font-weight="600" fill="#111827">MF13·C — Montos no ejercidos, reasignación y exclusión del Listado</text>
<rect x="27" y="62" width="210" height="658" rx="10" fill="#F7F8FA" stroke="#DCE0E6"/>
<text x="132" y="84" text-anchor="middle" font-size="12" font-weight="600" fill="#374151">R29·R30</text>
<text x="132" y="100" text-anchor="middle" font-size="10" fill="#6B7280">DRF / área responsable</text>
<rect x="243" y="62" width="210" height="658" rx="10" fill="#F7F8FA" stroke="#DCE0E6"/>
<text x="348" y="84" text-anchor="middle" font-size="12" font-weight="600" fill="#374151">R20</text>
<text x="348" y="100" text-anchor="middle" font-size="10" fill="#6B7280">UJIGEV</text>
<rect x="459" y="62" width="210" height="658" rx="10" fill="#F7F8FA" stroke="#DCE0E6"/>
<text x="564" y="84" text-anchor="middle" font-size="12" font-weight="600" fill="#374151">R32·R38</text>
<text x="564" y="100" text-anchor="middle" font-size="10" fill="#6B7280">Comité</text>
<rect x="675" y="62" width="210" height="658" rx="10" fill="#F7F8FA" stroke="#DCE0E6"/>
<text x="780" y="84" text-anchor="middle" font-size="12" font-weight="600" fill="#374151">R15</text>
<text x="780" y="100" text-anchor="middle" font-size="10" fill="#6B7280">DAFGD</text>
<rect x="891" y="62" width="210" height="658" rx="10" fill="#F7F8FA" stroke="#DCE0E6"/>
<text x="996" y="84" text-anchor="middle" font-size="12" font-weight="600" fill="#374151">R31→E-02</text>
<text x="996" y="100" text-anchor="middle" font-size="10" fill="#6B7280">DRFF · Informe anual</text>
<polyline points="132,116 132,132" fill="none" stroke="#566171" stroke-width="1.4" stroke-linejoin="round" marker-end="url(#ah)"/>
<polyline points="132,184 132,195 564,195 564,206" fill="none" stroke="#566171" stroke-width="1.4" stroke-linejoin="round" marker-end="url(#ah)"/>
<polyline points="564,258 564,269 780,269 780,280" fill="none" stroke="#566171" stroke-width="1.4" stroke-linejoin="round" marker-end="url(#ah)"/>
<polyline points="780,332 780,343 348,343 348,354" fill="none" stroke="#566171" stroke-width="1.4" stroke-linejoin="round" marker-end="url(#ah)"/>
<polyline points="348,406 348,426" fill="none" stroke="#566171" stroke-width="1.4" stroke-linejoin="round" marker-end="url(#ah)"/>
<polyline points="348,484 348,505 564,505 564,519" fill="none" stroke="#566171" stroke-width="1.4" stroke-linejoin="round" marker-end="url(#ah)"/>
<polyline points="348,484 348,515 996,515 996,519" fill="none" stroke="#566171" stroke-width="1.4" stroke-linejoin="round" marker-end="url(#ah)"/>
<polyline points="564,571 564,590 996,590 996,599" fill="none" stroke="#566171" stroke-width="1.4" stroke-linejoin="round" marker-end="url(#ah)"/>
<polyline points="996,571 996,599" fill="none" stroke="#566171" stroke-width="1.4" stroke-linejoin="round" marker-end="url(#ah)"/>
<polyline points="996,651 996,677" fill="none" stroke="#566171" stroke-width="1.4" stroke-linejoin="round" marker-end="url(#ah)"/>
<circle cx="132" cy="108" r="7" fill="#374151"/>
<rect x="47.5" y="132" width="169" height="52" rx="9" fill="#E8F0FE" stroke="#93B4E0" stroke-width="1.2"/>
<text x="132" y="154.5" text-anchor="middle" font-size="11.5" fill="#1F2937"><tspan font-weight="600" fill="#1D4ED8">C1</tspan><tspan fill="#1F2937"> · Calcula monto no</tspan></text>
<text x="132" y="169.5" text-anchor="middle" font-size="11.5" fill="#1F2937">ejercido (ajuste &lt;70%)</text>
<rect x="471" y="206" width="186" height="52" rx="9" fill="#E8F0FE" stroke="#93B4E0" stroke-width="1.2"/>
<text x="564" y="228.5" text-anchor="middle" font-size="11.5" fill="#1F2937"><tspan font-weight="600" fill="#1D4ED8">C2</tspan><tspan fill="#1F2937"> · Comité acuerda reintegro</tspan></text>
<text x="564" y="243.5" text-anchor="middle" font-size="11.5" fill="#1F2937">y reasignación (acta)</text>
<rect x="692.25" y="280" width="175.5" height="52" rx="9" fill="#E8F0FE" stroke="#93B4E0" stroke-width="1.2"/>
<text x="780" y="302.5" text-anchor="middle" font-size="11.5" fill="#1F2937"><tspan font-weight="600" fill="#1D4ED8">C3</tspan><tspan fill="#1F2937"> · Reasigna a predios</tspan></text>
<text x="780" y="317.5" text-anchor="middle" font-size="11.5" fill="#1F2937">factibles sin cobertura</text>
<rect x="255" y="354" width="186" height="52" rx="9" fill="#E8F0FE" stroke="#93B4E0" stroke-width="1.2"/>
<text x="348" y="376.5" text-anchor="middle" font-size="11.5" fill="#1F2937"><tspan font-weight="600" fill="#1D4ED8">C4</tspan><tspan fill="#1F2937"> · Solicitud de exclusión</tspan></text>
<text x="348" y="391.5" text-anchor="middle" font-size="11.5" fill="#1F2937">del Listado (prueba)</text>
<polygon points="348,426 408,455 348,484 288,455" fill="#FDF6E3" stroke="#D8BC6A" stroke-width="1.2"/>
<text x="348" y="451.5" text-anchor="middle" font-size="11.5" fill="#7A5B12">¿Comprueba</text>
<text x="348" y="466.5" text-anchor="middle" font-size="11.5" fill="#7A5B12">cumplimiento?</text>
<rect x="479.5" y="519" width="169" height="52" rx="9" fill="#E8F0FE" stroke="#93B4E0" stroke-width="1.2"/>
<text x="564" y="541.5" text-anchor="middle" font-size="11.5" fill="#1F2937"><tspan font-weight="600" fill="#1D4ED8">C5</tspan><tspan fill="#1F2937"> · Acuerda exclusión</tspan></text>
<text x="564" y="556.5" text-anchor="middle" font-size="11.5" fill="#1F2937">del Listado</text>
<rect x="903" y="519" width="186" height="52" rx="9" fill="#E8F0FE" stroke="#93B4E0" stroke-width="1.2"/>
<text x="996" y="541.5" text-anchor="middle" font-size="11.5" fill="#1F2937"><tspan font-weight="600" fill="#1D4ED8">C6</tspan><tspan fill="#1F2937"> · Permanece en el Listado</tspan></text>
<text x="996" y="556.5" text-anchor="middle" font-size="11.5" fill="#1F2937">(sin 2.ª ministración)</text>
<rect x="905" y="599" width="182" height="52" rx="9" fill="#E8F0FE" stroke="#93B4E0" stroke-width="1.2"/>
<text x="996" y="621.5" text-anchor="middle" font-size="11.5" fill="#1F2937"><tspan font-weight="600" fill="#1D4ED8">C7</tspan><tspan fill="#1F2937"> · Cifras de reintegro</tspan></text>
<text x="996" y="636.5" text-anchor="middle" font-size="11.5" fill="#1F2937">→ informe anual (E-02)</text>
<circle cx="996" cy="685" r="8" fill="#374151"/><circle cx="996" cy="685" r="3.4" fill="#FAFBFC"/>
<text x="560" y="500" text-anchor="end" font-size="10.5" font-weight="400" font-style="italic" fill="#6B7280">sí</text>
<text x="700" y="505" text-anchor="start" font-size="9.5" font-weight="400" font-style="italic" fill="#6B7280">no</text>
</svg>
