<svg xmlns="http://www.w3.org/2000/svg" viewBox="0 0 1128 990" width="1128" height="990" font-family="'Segoe UI', system-ui, -apple-system, sans-serif">
<defs><marker id="ah" viewBox="0 0 10 10" refX="8.6" refY="5" markerWidth="8.5" markerHeight="8.5" markerUnits="userSpaceOnUse" orient="auto"><path d="M0,0 L10,5 L0,10 z" fill="#566171"/></marker></defs>
<rect x="0" y="0" width="1128" height="990" fill="#FAFBFC"/>
<text x="564" y="42" text-anchor="middle" font-size="17" font-weight="600" fill="#111827">MF13·A — Detección del incumplimiento, rescisión (baja) y reintegro</text>
<rect x="27" y="62" width="210" height="898" rx="10" fill="#F7F8FA" stroke="#DCE0E6"/>
<text x="132" y="84" text-anchor="middle" font-size="12" font-weight="600" fill="#374151">R28</text>
<text x="132" y="100" text-anchor="middle" font-size="10" fill="#6B7280">Beneficiaria/o</text>
<rect x="243" y="62" width="210" height="898" rx="10" fill="#F7F8FA" stroke="#DCE0E6"/>
<text x="348" y="84" text-anchor="middle" font-size="12" font-weight="600" fill="#374151">R29·R30</text>
<text x="348" y="100" text-anchor="middle" font-size="10" fill="#6B7280">DRF / área responsable</text>
<rect x="459" y="62" width="210" height="898" rx="10" fill="#F7F8FA" stroke="#DCE0E6"/>
<text x="564" y="84" text-anchor="middle" font-size="12" font-weight="600" fill="#374151">R20</text>
<text x="564" y="100" text-anchor="middle" font-size="10" fill="#6B7280">UJIGEV</text>
<rect x="675" y="62" width="210" height="898" rx="10" fill="#F7F8FA" stroke="#DCE0E6"/>
<text x="780" y="84" text-anchor="middle" font-size="12" font-weight="600" fill="#374151">R32·R38</text>
<text x="780" y="100" text-anchor="middle" font-size="10" fill="#6B7280">Comité (FIPASAHEM/CAS)</text>
<rect x="891" y="62" width="210" height="898" rx="10" fill="#F7F8FA" stroke="#DCE0E6"/>
<text x="996" y="84" text-anchor="middle" font-size="12" font-weight="600" fill="#374151">R15·R33</text>
<text x="996" y="100" text-anchor="middle" font-size="10" fill="#6B7280">DAFGD · Fiduciaria</text>
<polyline points="348,116 348,132" fill="none" stroke="#566171" stroke-width="1.4" stroke-linejoin="round" marker-end="url(#ah)"/>
<polyline points="348,184 348,206" fill="none" stroke="#566171" stroke-width="1.4" stroke-linejoin="round" marker-end="url(#ah)"/>
<polyline points="348,258 348,269 564,269 564,280" fill="none" stroke="#566171" stroke-width="1.4" stroke-linejoin="round" marker-end="url(#ah)"/>
<polyline points="564,332 564,343 132,343 132,354" fill="none" stroke="#566171" stroke-width="1.4" stroke-linejoin="round" marker-end="url(#ah)"/>
<polyline points="132,406 132,417.5 780,417.5 780,429" fill="none" stroke="#566171" stroke-width="1.4" stroke-linejoin="round" marker-end="url(#ah)"/>
<polyline points="780,481 780,492.5 564,492.5 564,504" fill="none" stroke="#566171" stroke-width="1.4" stroke-linejoin="round" marker-end="url(#ah)"/>
<polyline points="564,556 564,567.5 996,567.5 996,579" fill="none" stroke="#566171" stroke-width="1.4" stroke-linejoin="round" marker-end="url(#ah)"/>
<polyline points="996,631 996,642.5 132,642.5 132,654" fill="none" stroke="#566171" stroke-width="1.4" stroke-linejoin="round" marker-end="url(#ah)"/>
<polyline points="132,706 132,733" fill="none" stroke="#566171" stroke-width="1.4" stroke-linejoin="round" marker-end="url(#ah)"/>
<polyline points="72,755 564,755 564,804" fill="none" stroke="#566171" stroke-width="1.4" stroke-linejoin="round" marker-end="url(#ah)"/>
<polyline points="132,777 132,868 348,868 348,879" fill="none" stroke="#566171" stroke-width="1.4" stroke-linejoin="round" marker-end="url(#ah)"/>
<polyline points="564,856 564,885 348,885 348,879" fill="none" stroke="#566171" stroke-width="1.4" stroke-linejoin="round" marker-end="url(#ah)"/>
<polyline points="348,931 348,937" fill="none" stroke="#566171" stroke-width="1.4" stroke-linejoin="round" marker-end="url(#ah)"/>
<circle cx="348" cy="108" r="7" fill="#374151"/>
<rect x="255" y="132" width="186" height="52" rx="9" fill="#E8F0FE" stroke="#93B4E0" stroke-width="1.2"/>
<text x="348" y="154.5" text-anchor="middle" font-size="11.5" fill="#1F2937"><tspan font-weight="600" fill="#1D4ED8">A1</tspan><tspan fill="#1F2937"> · Detecta incumplimiento</tspan></text>
<text x="348" y="169.5" text-anchor="middle" font-size="11.5" fill="#1F2937">(minuta, informe, denuncia)</text>
<rect x="257" y="206" width="182" height="52" rx="9" fill="#E8F0FE" stroke="#93B4E0" stroke-width="1.2"/>
<text x="348" y="228.5" text-anchor="middle" font-size="11.5" fill="#1F2937"><tspan font-weight="600" fill="#1D4ED8">A2</tspan><tspan fill="#1F2937"> · Clasifica la causal</tspan></text>
<text x="348" y="243.5" text-anchor="middle" font-size="11.5" fill="#1F2937">(incumplimiento / baja)</text>
<rect x="471" y="280" width="186" height="52" rx="9" fill="#E8F0FE" stroke="#93B4E0" stroke-width="1.2"/>
<text x="564" y="302.5" text-anchor="middle" font-size="11.5" fill="#1F2937"><tspan font-weight="600" fill="#1D4ED8">A3</tspan><tspan fill="#1F2937"> · UJIGEV revisa listado</tspan></text>
<text x="564" y="317.5" text-anchor="middle" font-size="11.5" fill="#1F2937">y predios con sanciones</text>
<rect x="39" y="354" width="186" height="52" rx="9" fill="#E8F0FE" stroke="#93B4E0" stroke-width="1.2"/>
<text x="132" y="376.5" text-anchor="middle" font-size="11.5" fill="#1F2937"><tspan font-weight="600" fill="#1D4ED8">A4</tspan><tspan fill="#1F2937"> · Notificación con</tspan></text>
<text x="132" y="391.5" text-anchor="middle" font-size="11.5" fill="#1F2937">motivos a la beneficiaria</text>
<rect x="687" y="429" width="186" height="52" rx="9" fill="#E8F0FE" stroke="#93B4E0" stroke-width="1.2"/>
<text x="780" y="451.5" text-anchor="middle" font-size="11.5" fill="#1F2937"><tspan font-weight="600" fill="#1D4ED8">A5</tspan><tspan fill="#1F2937"> · Comité acuerda baja</tspan></text>
<text x="780" y="466.5" text-anchor="middle" font-size="11.5" fill="#1F2937">y ordena reintegro (acta)</text>
<rect x="476.25" y="504" width="175.5" height="52" rx="9" fill="#E8F0FE" stroke="#93B4E0" stroke-width="1.2"/>
<text x="564" y="526.5" text-anchor="middle" font-size="11.5" fill="#1F2937"><tspan font-weight="600" fill="#1D4ED8">A6</tspan><tspan fill="#1F2937"> · Instruye a UJIGEV</tspan></text>
<text x="564" y="541.5" text-anchor="middle" font-size="11.5" fill="#1F2937">gestionar la devolución</text>
<rect x="903" y="579" width="186" height="52" rx="9" fill="#E8F0FE" stroke="#93B4E0" stroke-width="1.2"/>
<text x="996" y="601.5" text-anchor="middle" font-size="11.5" fill="#1F2937"><tspan font-weight="600" fill="#1D4ED8">A7</tspan><tspan fill="#1F2937"> · DAFGD proporciona</tspan></text>
<text x="996" y="616.5" text-anchor="middle" font-size="11.5" fill="#1F2937">cuenta (fiduciaria/PROB.)</text>
<rect x="39" y="654" width="186" height="52" rx="9" fill="#E8F0FE" stroke="#93B4E0" stroke-width="1.2"/>
<text x="132" y="676.5" text-anchor="middle" font-size="11.5" fill="#1F2937"><tspan font-weight="600" fill="#1D4ED8">A8</tspan><tspan fill="#1F2937"> · Beneficiaria reintegra</tspan></text>
<text x="132" y="691.5" text-anchor="middle" font-size="11.5" fill="#1F2937">(transferencia o cheque)</text>
<polygon points="132,733 192,755 132,777 72,755" fill="#FDF6E3" stroke="#D8BC6A" stroke-width="1.2"/>
<text x="132" y="759" text-anchor="middle" font-size="11.5" fill="#7A5B12">¿Reintegra?</text>
<rect x="473" y="804" width="182" height="52" rx="9" fill="#E8F0FE" stroke="#93B4E0" stroke-width="1.2"/>
<text x="564" y="826.5" text-anchor="middle" font-size="11.5" fill="#1F2937"><tspan font-weight="600" fill="#1D4ED8">A8c</tspan><tspan fill="#1F2937"> · Sanción del Comité</tspan></text>
<text x="564" y="841.5" text-anchor="middle" font-size="11.5" fill="#1F2937">(instruye a UJIGEV)</text>
<rect x="255" y="879" width="186" height="52" rx="9" fill="#E8F0FE" stroke="#93B4E0" stroke-width="1.2"/>
<text x="348" y="901.5" text-anchor="middle" font-size="11.5" fill="#1F2937"><tspan font-weight="600" fill="#1D4ED8">A9</tspan><tspan fill="#1F2937"> · Publica Listado de</tspan></text>
<text x="348" y="916.5" text-anchor="middle" font-size="11.5" fill="#1F2937">Beneficiarias Incumplidas</text>
<circle cx="348" cy="945" r="8" fill="#374151"/><circle cx="348" cy="945" r="3.4" fill="#FAFBFC"/>
<text x="300" y="747" text-anchor="end" font-size="10.5" font-weight="400" font-style="italic" fill="#6B7280">no</text>
<text x="120" y="800" text-anchor="start" font-size="9.5" font-weight="400" font-style="italic" fill="#6B7280">sí (comprueba)</text>
</svg>
