<svg xmlns="http://www.w3.org/2000/svg" viewBox="0 0 968 930" width="968" height="930" font-family="'Segoe UI', system-ui, -apple-system, sans-serif">
<defs><marker id="ah" viewBox="0 0 10 10" refX="8.6" refY="5" markerWidth="8.5" markerHeight="8.5" markerUnits="userSpaceOnUse" orient="auto"><path d="M0,0 L10,5 L0,10 z" fill="#566171"/></marker></defs>
<rect x="0" y="0" width="968" height="930" fill="#FAFBFC"/>
<text x="484" y="42" text-anchor="middle" font-size="17" font-weight="600" fill="#111827">E4 — Ciclo institucional: programación, SIED y rendición de cuentas (UIPPE)</text>
<rect x="27" y="62" width="224" height="838" rx="10" fill="#F7F8FA" stroke="#DCE0E6"/>
<text x="139" y="84" text-anchor="middle" font-size="12" font-weight="600" fill="#374151">R21</text>
<text x="139" y="100" text-anchor="middle" font-size="10" fill="#6B7280">UIPPE (Olivares Márquez)</text>
<rect x="257" y="62" width="224" height="838" rx="10" fill="#F7F8FA" stroke="#DCE0E6"/>
<text x="369" y="84" text-anchor="middle" font-size="12" font-weight="600" fill="#374151">R19·R15</text>
<text x="369" y="100" text-anchor="middle" font-size="10" fill="#6B7280">DG · DAFGD</text>
<rect x="487" y="62" width="224" height="838" rx="10" fill="#F7F8FA" stroke="#DCE0E6"/>
<text x="599" y="84" text-anchor="middle" font-size="12" font-weight="600" fill="#374151">DEST</text>
<text x="599" y="100" text-anchor="middle" font-size="10" fill="#6B7280">SF · Contraloría · OSFEM · Consejo</text>
<rect x="717" y="62" width="224" height="838" rx="10" fill="#F7F8FA" stroke="#DCE0E6"/>
<text x="829" y="84" text-anchor="middle" font-size="12" font-weight="600" fill="#374151">web</text>
<text x="829" y="100" text-anchor="middle" font-size="10" fill="#6B7280">Sitio (CONAC)</text>
<polyline points="139,116 139,132" fill="none" stroke="#566171" stroke-width="1.4" stroke-linejoin="round" marker-end="url(#ah)"/>
<polyline points="139,184 139,195 369,195 369,206" fill="none" stroke="#566171" stroke-width="1.4" stroke-linejoin="round" marker-end="url(#ah)"/>
<polyline points="278,232 139,232 139,272.5" fill="none" stroke="#566171" stroke-width="1.4" stroke-linejoin="round" marker-end="url(#ah)"/>
<polyline points="139,339.5 139,361.5" fill="none" stroke="#566171" stroke-width="1.4" stroke-linejoin="round" marker-end="url(#ah)"/>
<polyline points="232,380 369,380 369,428" fill="none" stroke="#566171" stroke-width="1.4" stroke-linejoin="round" marker-end="url(#ah)"/>
<polyline points="276,454 139,454 139,502" fill="none" stroke="#566171" stroke-width="1.4" stroke-linejoin="round" marker-end="url(#ah)"/>
<polyline points="139,554 139,565 369,565 369,576" fill="none" stroke="#566171" stroke-width="1.4" stroke-linejoin="round" marker-end="url(#ah)"/>
<polyline points="369,628 369,650" fill="none" stroke="#566171" stroke-width="1.4" stroke-linejoin="round" marker-end="url(#ah)"/>
<polyline points="369,702 369,713 829,713 829,724" fill="none" stroke="#566171" stroke-width="1.4" stroke-linejoin="round" marker-end="url(#ah)"/>
<polyline points="829,776 829,838" fill="none" stroke="#566171" stroke-width="1.4" stroke-linejoin="round" marker-end="url(#ah)"/>
<circle cx="139" cy="108" r="7" fill="#374151"/>
<rect x="46" y="132" width="186" height="52" rx="9" fill="#E8F0FE" stroke="#93B4E0" stroke-width="1.2"/>
<text x="139" y="154.5" text-anchor="middle" font-size="11.5" fill="#1F2937"><tspan font-weight="600" fill="#1D4ED8">A1</tspan><tspan fill="#1F2937"> · Proyecto de presupuesto</tspan></text>
<text x="139" y="169.5" text-anchor="middle" font-size="11.5" fill="#1F2937">por programa (MIR del Pp.)</text>
<rect x="278" y="206" width="182" height="52" rx="9" fill="#E8F0FE" stroke="#93B4E0" stroke-width="1.2"/>
<text x="369" y="228.5" text-anchor="middle" font-size="11.5" fill="#1F2937"><tspan font-weight="600" fill="#1D4ED8">A2</tspan><tspan fill="#1F2937"> · DG aprueba</tspan></text>
<text x="369" y="243.5" text-anchor="middle" font-size="11.5" fill="#1F2937">+ reconducciones ante SF</text>
<rect x="54.5" y="272.5" width="169" height="67" rx="9" fill="#E8F0FE" stroke="#93B4E0" stroke-width="1.2"/>
<text x="139" y="295" text-anchor="middle" font-size="11.5" fill="#1F2937"><tspan font-weight="600" fill="#1D4ED8">A3</tspan><tspan fill="#1F2937"> · Avance de metas →</tspan></text>
<text x="139" y="310" text-anchor="middle" font-size="11.5" fill="#1F2937">SF/DAFGD; desviaciones</text>
<text x="139" y="325" text-anchor="middle" font-size="11.5" fill="#1F2937">→ Contraloría</text>
<rect x="46" y="361.5" width="186" height="37" rx="9" fill="#E8F0FE" stroke="#93B4E0" stroke-width="1.2"/>
<text x="139" y="384" text-anchor="middle" font-size="11.5" fill="#1F2937"><tspan font-weight="600" fill="#1D4ED8">B1</tspan><tspan fill="#1F2937"> · Indicadores SIED → SF</tspan></text>
<rect x="276" y="428" width="186" height="52" rx="9" fill="#E8F0FE" stroke="#93B4E0" stroke-width="1.2"/>
<text x="369" y="450.5" text-anchor="middle" font-size="11.5" fill="#1F2937"><tspan font-weight="600" fill="#1D4ED8">B3</tspan><tspan fill="#1F2937"> · Requerimientos OSFEM</tspan></text>
<text x="369" y="465.5" text-anchor="middle" font-size="11.5" fill="#1F2937">vía DAFGD</text>
<rect x="46" y="502" width="186" height="52" rx="9" fill="#E8F0FE" stroke="#93B4E0" stroke-width="1.2"/>
<text x="139" y="524.5" text-anchor="middle" font-size="11.5" fill="#1F2937"><tspan font-weight="600" fill="#1D4ED8">C1</tspan><tspan fill="#1F2937"> · Evaluación del Plan de</tspan></text>
<text x="139" y="539.5" text-anchor="middle" font-size="11.5" fill="#1F2937">Desarrollo → informe trim/anual</text>
<rect x="276" y="576" width="186" height="52" rx="9" fill="#E8F0FE" stroke="#93B4E0" stroke-width="1.2"/>
<text x="369" y="598.5" text-anchor="middle" font-size="11.5" fill="#1F2937"><tspan font-weight="600" fill="#1D4ED8">C2</tspan><tspan fill="#1F2937"> · Memoria de gobierno;</tspan></text>
<text x="369" y="613.5" text-anchor="middle" font-size="11.5" fill="#1F2937">Cuenta Pública → DAFGD</text>
<rect x="276" y="650" width="186" height="52" rx="9" fill="#E8F0FE" stroke="#93B4E0" stroke-width="1.2"/>
<text x="369" y="672.5" text-anchor="middle" font-size="11.5" fill="#1F2937"><tspan font-weight="600" fill="#1D4ED8">C3</tspan><tspan fill="#1F2937"> · Informe de actividades</tspan></text>
<text x="369" y="687.5" text-anchor="middle" font-size="11.5" fill="#1F2937">al Consejo (DG)</text>
<rect x="738" y="724" width="182" height="52" rx="9" fill="#E8F0FE" stroke="#93B4E0" stroke-width="1.2"/>
<text x="829" y="746.5" text-anchor="middle" font-size="11.5" fill="#1F2937"><tspan font-weight="600" fill="#1D4ED8">C4</tspan><tspan fill="#1F2937"> · Publica estados +</tspan></text>
<text x="829" y="761.5" text-anchor="middle" font-size="11.5" fill="#1F2937">indicadores (trimestral)</text>
<circle cx="829" cy="846" r="8" fill="#374151"/><circle cx="829" cy="846" r="3.4" fill="#FAFBFC"/>
</svg>
